<svg width="56" height="56" viewBox="0 0 56 56" fill="none" xmlns="http://www.w3.org/2000/svg">
<path opacity="0.5" d="M13.4644 45.4328C16.2915 45.4328 18.5832 43.1411 18.5832 40.3141C18.5832 37.4871 16.2915 35.1953 13.4644 35.1953C10.6374 35.1953 8.3457 37.4871 8.3457 40.3141C8.3457 43.1411 10.6374 45.4328 13.4644 45.4328Z" fill="#006EB7"/>
<path opacity="0.2" d="M46.3978 40.8932C48.8514 40.8932 50.8404 38.9041 50.8404 36.4505C50.8404 33.9969 48.8514 32.0078 46.3978 32.0078C43.9441 32.0078 41.9551 33.9969 41.9551 36.4505C41.9551 38.9041 43.9441 40.8932 46.3978 40.8932Z" fill="#006EB7"/>
<path opacity="0.5" d="M42.3419 18.4861C44.3688 18.4861 46.012 16.8429 46.012 14.816C46.012 12.7891 44.3688 11.146 42.3419 11.146C40.315 11.146 38.6719 12.7891 38.6719 14.816C38.6719 16.8429 40.315 18.4861 42.3419 18.4861Z" fill="#006EB7"/>
<path opacity="0.6" d="M9.43215 32.9371C12.4322 32.9371 14.8643 30.5643 14.8643 27.6374C14.8643 24.7104 12.4322 22.3376 9.43215 22.3376C6.43205 22.3376 4 24.7104 4 27.6374C4 30.5643 6.43205 32.9371 9.43215 32.9371Z" fill="#006EB7"/>
<path opacity="0.4" d="M25.0379 52.0012C27.7653 52.0012 29.9763 49.8467 29.9763 47.1891C29.9763 44.5314 27.7653 42.377 25.0379 42.377C22.3106 42.377 20.0996 44.5314 20.0996 47.1891C20.0996 49.8467 22.3106 52.0012 25.0379 52.0012Z" fill="#006EB7"/>
<path opacity="0.3" d="M37.7285 49.8932C40.3195 49.8932 42.4199 47.848 42.4199 45.3252C42.4199 42.8024 40.3195 40.7573 37.7285 40.7573C35.1376 40.7573 33.0372 42.8024 33.0372 45.3252C33.0372 47.848 35.1376 49.8932 37.7285 49.8932Z" fill="#006EB7"/>
<path opacity="0.8" d="M15.3079 20.6298C18.4443 20.6298 20.9869 18.1479 20.9869 15.0864C20.9869 12.0248 18.4443 9.54297 15.3079 9.54297C12.1715 9.54297 9.62891 12.0248 9.62891 15.0864C9.62891 18.1479 12.1715 20.6298 15.3079 20.6298Z" fill="#006EB7"/>
<path opacity="0.1" d="M47.803 29.028C50.1213 29.028 52.0006 27.1836 52.0006 24.9083C52.0006 22.633 50.1213 20.7886 47.803 20.7886C45.4848 20.7886 43.6055 22.633 43.6055 24.9083C43.6055 27.1836 45.4848 29.028 47.803 29.028Z" fill="#006EB7"/>
<path d="M29.4001 15.9759C32.7071 15.9759 35.388 13.295 35.388 9.98796C35.388 6.6809 32.7071 4 29.4001 4C26.093 4 23.4121 6.6809 23.4121 9.98796C23.4121 13.295 26.093 15.9759 29.4001 15.9759Z" fill="#006EB7"/>
</svg>
